<?xml version="1.0" encoding="utf-8"?>
<!-- Generator: Adobe Illustrator 16.0.0, SVG Export Plug-In . SVG Version: 6.00 Build 0)  -->
<!DOCTYPE svg PUBLIC "-//W3C//DTD SVG 1.1//EN" "http://www.w3.org/Graphics/SVG/1.1/DTD/svg11.dtd">
<svg version="1.1" id="Capa_1" xmlns="http://www.w3.org/2000/svg" xmlns:xlink="http://www.w3.org/1999/xlink" x="0px" y="0px"
	 width="200px" height="200px" viewBox="0 0 200 200" enable-background="new 0 0 200 200" xml:space="preserve">
<g>
	<g>
		<path d="M199.26,97.633c-1.575-2.292-39.426-55.968-99.26-55.968c-51.342,0-97.093,53.368-99.018,55.643
			c-1.309,1.55-1.309,3.825,0,5.383c1.925,2.275,47.676,55.643,99.018,55.643s97.093-53.367,99.018-55.643
			C200.227,101.258,200.334,99.183,199.26,97.633z M100,150.001c-41.159,0-80.293-39.251-90.234-50.001
			C19.69,89.242,58.783,49.999,100,49.999c48.159,0,82.151,39.192,90.452,49.776C180.867,110.184,141.508,150.001,100,150.001z"/>
	</g>
</g>
</svg>
