<?xml version="1.0" encoding="utf-8"?>
<!-- Generator: Adobe Illustrator 16.0.0, SVG Export Plug-In . SVG Version: 6.00 Build 0)  -->
<!DOCTYPE svg PUBLIC "-//W3C//DTD SVG 1.1//EN" "http://www.w3.org/Graphics/SVG/1.1/DTD/svg11.dtd">
<svg version="1.1" id="Capa_1" xmlns="http://www.w3.org/2000/svg" xmlns:xlink="http://www.w3.org/1999/xlink" x="0px" y="0px"
	 width="426.224px" height="426.779px" viewBox="0 0 426.224 426.779" enable-background="new 0 0 426.224 426.779"
	 xml:space="preserve">
<path fill="#FF697B" d="M325.622,418.458H101.408c-49.487,0-89.887-40.4-89.887-89.895V104.351c0-49.488,40.4-89.888,89.887-89.888
	h224.214c49.493,0,89.893,40.4,89.893,89.888v224.212C415.515,378.057,375.115,418.458,325.622,418.458z"/>
<g display="none">
	<g display="inline">
		<path d="M399.555,211.563c-2.952-4.654-73.894-113.676-186.036-113.676c-96.229,0-181.976,108.396-185.584,113.016
			c-2.451,3.149-2.451,7.771,0,10.935c3.609,4.62,89.356,113.015,185.584,113.015s181.976-108.395,185.583-113.015
			C401.367,218.928,401.57,214.71,399.555,211.563z M213.519,317.926c-77.141,0-150.488-79.721-169.121-101.557
			C63,194.52,136.268,114.814,213.519,114.814c90.262,0,153.971,79.603,169.527,101.098
			C365.083,237.055,291.316,317.926,213.519,317.926z"/>
	</g>
</g>
<g>
	<g>
		<path fill="#FFFFFF" d="M374.281,210.469c-2.501-3.864-62.591-94.373-157.579-94.373c-81.509,0-154.14,89.989-157.196,93.825
			c-2.076,2.615-2.076,6.45,0,9.077c3.057,3.836,75.688,93.824,157.196,93.824s154.14-89.988,157.194-93.824
			C375.815,216.584,375.985,213.083,374.281,210.469z M216.701,298.772"/>
		<path fill="#535454" d="M376.408,210.347c-2.578-3.981-64.5-97.25-162.385-97.25c-83.995,0-158.841,92.734-161.99,96.686
			c-2.14,2.694-2.14,6.647,0,9.354c3.149,3.953,77.995,96.686,161.99,96.686c83.994,0,158.84-92.732,161.988-96.686
			C377.99,216.649,378.165,213.041,376.408,210.347z M214.024,301.342c-67.334,0-131.356-68.202-147.62-86.882
			c16.237-18.693,80.19-86.882,147.62-86.882c78.785,0,134.395,68.101,147.974,86.49
			C346.318,232.157,281.929,301.342,214.024,301.342z"/>
	</g>
</g>
<g display="none">
	<g display="inline">
		<path d="M213.518,114.74c-54.717,0-99.215,44.498-99.215,99.215c0,54.716,44.498,99.214,99.215,99.214
			s99.215-44.498,99.215-99.214C312.733,159.237,268.235,114.74,213.518,114.74z M213.518,288.367
			c-41.025,0-74.411-33.387-74.411-74.411c0-41.025,33.386-74.412,74.411-74.412c41.024,0,74.411,33.386,74.411,74.412
			C287.929,254.98,254.542,288.367,213.518,288.367z"/>
	</g>
</g>
<path fill="#535454" d="M172.278,263.683v-98.394c0-3.921,3.208-7.13,7.13-7.13c1.07,0,2.496,0.356,3.565,1.069l83.063,49.197
	c3.209,2.139,4.637,6.416,2.496,9.625c-0.713,1.07-1.426,1.783-2.496,2.496l-83.063,49.197c-3.565,2.139-7.844,0.713-9.626-2.494"/>
<path fill="none" stroke="#535454" stroke-width="22" stroke-linecap="round" stroke-linejoin="round" stroke-miterlimit="10" d="
	M325.341,415.445H101.689c-49.364,0-89.663-40.299-89.663-89.668V102.125c0-49.363,40.298-89.662,89.663-89.662h223.652
	c49.369,0,89.668,40.299,89.668,89.662v223.652C415.009,375.146,374.71,415.445,325.341,415.445z"/>
<g id="Layer_2">
	<path fill="#535454" d="M359.716,157.277c-2.798,3.453-8.111,3.786-11.865,0.744l0,0c-3.754-3.043-4.53-8.31-1.729-11.762
		l23.746-29.3c2.799-3.453,8.112-3.786,11.866-0.743l0,0c3.754,3.042,4.527,8.309,1.729,11.762L359.716,157.277z"/>
	<path fill="#535454" d="M224.956,92.398c0.002,4.592-3.912,8.318-8.746,8.32l0,0c-4.83,0.003-8.752-3.718-8.753-8.31l-0.023-38.966
		c-0.003-4.593,3.913-8.318,8.745-8.321l0,0c4.834-0.003,8.752,3.718,8.756,8.311L224.956,92.398z"/>
	<path fill="#535454" d="M287.571,104.927c-1.823,4.062,0.144,9.148,4.387,11.358l0,0c4.249,2.211,9.169,0.709,10.989-3.353
		l15.47-34.463c1.823-4.062-0.141-9.146-4.388-11.358l0,0c-4.247-2.209-9.167-0.708-10.99,3.353L287.571,104.927z"/>
	<path fill="#535454" d="M144.821,104.927c1.822,4.062-0.145,9.148-4.387,11.358l0,0c-4.25,2.211-9.17,0.709-10.99-3.353
		l-15.469-34.463c-1.824-4.062,0.141-9.146,4.387-11.358l0,0c4.248-2.209,9.168-0.708,10.99,3.353L144.821,104.927z"/>
	<path fill="#535454" d="M72.674,157.277c2.798,3.453,8.111,3.786,11.865,0.744l0,0c3.754-3.043,4.53-8.31,1.729-11.762
		l-23.746-29.3c-2.799-3.453-8.112-3.786-11.866-0.743l0,0c-3.754,3.042-4.527,8.309-1.729,11.762L72.674,157.277z"/>
</g>
<g>
	<g>
		<path fill="#FCFCFC" stroke="#FFFFFF" stroke-width="19" stroke-miterlimit="10" d="M341.015,85.343
			c-2.873-2.866-7.547-2.866-10.42,0.001L80.129,335.263c-2.873,2.867-2.873,7.526,0.001,10.393c1.444,1.424,3.33,2.147,5.216,2.146
			c1.886,0,3.771-0.72,5.201-2.146L341.016,95.737C343.889,92.87,343.889,88.209,341.015,85.343z"/>
		<path fill="#535454" stroke="#535454" stroke-width="6" stroke-miterlimit="10" d="M341.015,85.343
			c-2.873-2.866-7.547-2.866-10.42,0.001L80.129,335.263c-2.873,2.867-2.873,7.526,0.001,10.393c1.444,1.424,3.33,2.147,5.216,2.146
			c1.886,0,3.771-0.72,5.201-2.146L341.016,95.737C343.889,92.87,343.889,88.209,341.015,85.343z"/>
	</g>
</g>
</svg>
